{
	"accessors" : 
	[
		{
			"bufferView" : 2,
			"byteOffset" : 0,
			"componentType" : 5126,
			"count" : 9762,
			"max" : 
			[
				1,
				1,
				1,
				1
			],
			"min" : 
			[
				0.006584956776350737,
				0.006584956776350737,
				0.006584956776350737,
				1
			],
			"name" : "accessor_color_m0-PolyPaper21_-16906",
			"type" : "VEC4"
		},
		{
			"bufferView" : 2,
			"byteOffset" : 156192,
			"componentType" : 5126,
			"count" : 9960,
			"max" : 
			[
				1,
				1,
				1,
				1
			],
			"min" : 
			[
				0.006584956776350737,
				0.006584956776350737,
				0.006584956776350737,
				1
			],
			"name" : "accessor_color_m1-PolyPaper23_-16908",
			"type" : "VEC4"
		},
		{
			"bufferView" : 2,
			"byteOffset" : 315552,
			"componentType" : 5126,
			"count" : 141,
			"max" : 
			[
				1,
				1,
				1,
				1
			],
			"min" : 
			[
				1,
				1,
				1,
				1
			],
			"name" : "accessor_color_m2-PolyGem25_-16910",
			"type" : "VEC4"
		},
		{
			"bufferView" : 2,
			"byteOffset" : 317808,
			"componentType" : 5126,
			"count" : 9972,
			"max" : 
			[
				1,
				1,
				1,
				1
			],
			"min" : 
			[
				0.006584956776350737,
				0.006584956776350737,
				0.006584956776350737,
				1
			],
			"name" : "accessor_color_m3-PolyPaper21_-16912",
			"type" : "VEC4"
		},
		{
			"bufferView" : 2,
			"byteOffset" : 477360,
			"componentType" : 5126,
			"count" : 920,
			"max" : 
			[
				1,
				1,
				1,
				1
			],
			"min" : 
			[
				0.3488648533821106,
				0.3488648533821106,
				0.3488648533821106,
				1
			],
			"name" : "accessor_color_m4-PolyPaper21_-16914",
			"type" : "VEC4"
		},
		{
			"bufferView" : 0,
			"byteOffset" : 0,
			"componentType" : 5123,
			"count" : 9972,
			"max" : 
			[
				9761
			],
			"min" : 
			[
				0
			],
			"name" : "accessor_indices_0_m0-PolyPaper21_-16906",
			"type" : "SCALAR"
		},
		{
			"bufferView" : 0,
			"byteOffset" : 19944,
			"componentType" : 5123,
			"count" : 11634,
			"max" : 
			[
				9959
			],
			"min" : 
			[
				0
			],
			"name" : "accessor_indices_0_m1-PolyPaper23_-16908",
			"type" : "SCALAR"
		},
		{
			"bufferView" : 0,
			"byteOffset" : 43212,
			"componentType" : 5123,
			"count" : 141,
			"max" : 
			[
				140
			],
			"min" : 
			[
				0
			],
			"name" : "accessor_indices_0_m2-PolyGem25_-16910",
			"type" : "SCALAR"
		},
		{
			"bufferView" : 0,
			"byteOffset" : 43494,
			"componentType" : 5123,
			"count" : 13488,
			"max" : 
			[
				9971
			],
			"min" : 
			[
				0
			],
			"name" : "accessor_indices_0_m3-PolyPaper21_-16912",
			"type" : "SCALAR"
		},
		{
			"bufferView" : 0,
			"byteOffset" : 70470,
			"componentType" : 5123,
			"count" : 1140,
			"max" : 
			[
				919
			],
			"min" : 
			[
				0
			],
			"name" : "accessor_indices_0_m4-PolyPaper21_-16914",
			"type" : "SCALAR"
		},
		{
			"bufferView" : 1,
			"byteOffset" : 117144,
			"componentType" : 5126,
			"count" : 9762,
			"max" : 
			[
				0.9998664,
				0.9991819,
				0.9995124
			],
			"min" : 
			[
				-0.9998663,
				-0.999182,
				-0.9995491
			],
			"name" : "accessor_normal_m0-PolyPaper21_-16906",
			"type" : "VEC3"
		},
		{
			"bufferView" : 1,
			"byteOffset" : 353808,
			"componentType" : 5126,
			"count" : 9960,
			"max" : 
			[
				0.998212,
				0.9998423,
				0.9976928
			],
			"min" : 
			[
				-0.998212,
				-0.9998866,
				-0.9976928
			],
			"name" : "accessor_normal_m1-PolyPaper23_-16908",
			"type" : "VEC3"
		},
		{
			"bufferView" : 1,
			"byteOffset" : 475020,
			"componentType" : 5126,
			"count" : 141,
			"max" : 
			[
				0.9960625,
				0.6066793,
				0.8645659
			],
			"min" : 
			[
				-0.9204329999999999,
				-0.9902778,
				-0.993565
			],
			"name" : "accessor_normal_m2-PolyGem25_-16910",
			"type" : "VEC3"
		},
		{
			"bufferView" : 1,
			"byteOffset" : 596376,
			"componentType" : 5126,
			"count" : 9972,
			"max" : 
			[
				0.9985414,
				0.9998981,
				0.9966716
			],
			"min" : 
			[
				-0.9997151,
				-0.9998981,
				-0.9973623
			],
			"name" : "accessor_normal_m3-PolyPaper21_-16912",
			"type" : "VEC3"
		},
		{
			"bufferView" : 1,
			"byteOffset" : 727080,
			"componentType" : 5126,
			"count" : 920,
			"max" : 
			[
				0.990421,
				0.9994132,
				0.986367
			],
			"min" : 
			[
				-0.990421,
				-0.9958913,
				-0.986367
			],
			"name" : "accessor_normal_m4-PolyPaper21_-16914",
			"type" : "VEC3"
		},
		{
			"bufferView" : 1,
			"byteOffset" : 0,
			"componentType" : 5126,
			"count" : 9762,
			"max" : 
			[
				0.9380153,
				1.903787,
				1.338213
			],
			"min" : 
			[
				-0.6114193,
				-0.5943395,
				-0.2615811
			],
			"name" : "accessor_position_m0-PolyPaper21_-16906",
			"type" : "VEC3"
		},
		{
			"bufferView" : 1,
			"byteOffset" : 234288,
			"componentType" : 5126,
			"count" : 9960,
			"max" : 
			[
				0.7795714,
				2.407153,
				3.080529
			],
			"min" : 
			[
				-1.952002,
				-2.351423,
				-0.09675766
			],
			"name" : "accessor_position_m1-PolyPaper23_-16908",
			"type" : "VEC3"
		},
		{
			"bufferView" : 1,
			"byteOffset" : 473328,
			"componentType" : 5126,
			"count" : 141,
			"max" : 
			[
				0.7970051,
				2.190492,
				1.516286
			],
			"min" : 
			[
				-0.8095976,
				0.7798891,
				-0.1289821
			],
			"name" : "accessor_position_m2-PolyGem25_-16910",
			"type" : "VEC3"
		},
		{
			"bufferView" : 1,
			"byteOffset" : 476712,
			"componentType" : 5126,
			"count" : 9972,
			"max" : 
			[
				1.149435,
				2.651237,
				2.42058
			],
			"min" : 
			[
				-1.556397,
				-0.4537154,
				-0.4315425
			],
			"name" : "accessor_position_m3-PolyPaper21_-16912",
			"type" : "VEC3"
		},
		{
			"bufferView" : 1,
			"byteOffset" : 716040,
			"componentType" : 5126,
			"count" : 920,
			"max" : 
			[
				0.7866246,
				2.353086,
				1.146862
			],
			"min" : 
			[
				-0.3827639,
				0.4158405,
				0.4800569
			],
			"name" : "accessor_position_m4-PolyPaper21_-16914",
			"type" : "VEC3"
		}
	],
	"asset" : 
	{
		"copyright" : "Unknown",
		"generator" : "glTF 1-to-2 Upgrader for Google Blocks",
		"version" : "2.0"
	},
	"bufferViews" : 
	[
		{
			"buffer" : 0,
			"byteLength" : 72750,
			"byteOffset" : 0,
			"name" : "ushortBufferView",
			"target" : 34963
		},
		{
			"buffer" : 0,
			"byteLength" : 738120,
			"byteOffset" : 72750,
			"byteStride" : 12,
			"name" : "vec3BufferView",
			"target" : 34962
		},
		{
			"buffer" : 0,
			"byteLength" : 492080,
			"byteOffset" : 810870,
			"byteStride" : 16,
			"name" : "vec4BufferView",
			"target" : 34962
		}
	],
	"buffers" : 
	[
		{
			"byteLength" : 1302950,
			"name" : "model",
			"uri" : "model.bin"
		}
	],
	"materials" : 
	[
		{
			"alphaMode" : "OPAQUE",
			"doubleSided" : false,
			"name" : "BlocksPaper",
			"pbrMetallicRoughness" : 
			{
				"baseColorFactor" : 
				[
					1,
					1,
					1,
					1
				],
				"metallicFactor" : 0,
				"roughnessFactor" : 0.6
			}
		},
		{
			"alphaMode" : "BLEND",
			"doubleSided" : false,
			"name" : "BlocksGlass",
			"pbrMetallicRoughness" : 
			{
				"baseColorFactor" : 
				[
					0.2,
					0.2,
					1,
					0.3
				],
				"metallicFactor" : 1,
				"roughnessFactor" : 0.4
			}
		},
		{
			"alphaMode" : "OPAQUE",
			"doubleSided" : true,
			"name" : "BlocksGem",
			"pbrMetallicRoughness" : 
			{
				"baseColorFactor" : 
				[
					1,
					0.4,
					1,
					1
				],
				"metallicFactor" : 0,
				"roughnessFactor" : 0.1
			}
		}
	],
	"meshes" : 
	[
		{
			"name" : "mesh_m0-PolyPaper21_-16906",
			"primitives" : 
			[
				{
					"attributes" : 
					{
						"COLOR_0" : 0,
						"NORMAL" : 10,
						"POSITION" : 15
					},
					"indices" : 5,
					"material" : 0,
					"mode" : 4
				}
			]
		},
		{
			"name" : "mesh_m1-PolyPaper23_-16908",
			"primitives" : 
			[
				{
					"attributes" : 
					{
						"COLOR_0" : 1,
						"NORMAL" : 11,
						"POSITION" : 16
					},
					"indices" : 6,
					"material" : 0,
					"mode" : 4
				}
			]
		},
		{
			"name" : "mesh_m2-PolyGem25_-16910",
			"primitives" : 
			[
				{
					"attributes" : 
					{
						"COLOR_0" : 2,
						"NORMAL" : 12,
						"POSITION" : 17
					},
					"indices" : 7,
					"material" : 2,
					"mode" : 4
				}
			]
		},
		{
			"name" : "mesh_m3-PolyPaper21_-16912",
			"primitives" : 
			[
				{
					"attributes" : 
					{
						"COLOR_0" : 3,
						"NORMAL" : 13,
						"POSITION" : 18
					},
					"indices" : 8,
					"material" : 0,
					"mode" : 4
				}
			]
		},
		{
			"name" : "mesh_m4-PolyPaper21_-16914",
			"primitives" : 
			[
				{
					"attributes" : 
					{
						"COLOR_0" : 4,
						"NORMAL" : 14,
						"POSITION" : 19
					},
					"indices" : 9,
					"material" : 0,
					"mode" : 4
				}
			]
		}
	],
	"nodes" : 
	[
		{
			"matrix" : 
			[
				1,
				0,
				0,
				0,
				0,
				1,
				0,
				0,
				0,
				0,
				1,
				0,
				0,
				0,
				0,
				1
			],
			"mesh" : 4,
			"name" : "node_MeshObject-1057668544-PolyPaper21"
		},
		{
			"matrix" : 
			[
				1,
				0,
				0,
				0,
				0,
				1,
				0,
				0,
				0,
				0,
				1,
				0,
				0,
				0,
				0,
				1
			],
			"mesh" : 3,
			"name" : "node_MeshObject-1576388608-PolyPaper21"
		},
		{
			"matrix" : 
			[
				1,
				0,
				0,
				0,
				0,
				1,
				0,
				0,
				0,
				0,
				1,
				0,
				0,
				0,
				0,
				1
			],
			"mesh" : 2,
			"name" : "node_MeshObject-2095108672-PolyGem25"
		},
		{
			"matrix" : 
			[
				1,
				0,
				0,
				0,
				0,
				1,
				0,
				0,
				0,
				0,
				1,
				0,
				0,
				0,
				0,
				1
			],
			"mesh" : 0,
			"name" : "node_MeshObject1162418496-PolyPaper21"
		},
		{
			"matrix" : 
			[
				1,
				0,
				0,
				0,
				0,
				1,
				0,
				0,
				0,
				0,
				1,
				0,
				0,
				0,
				0,
				1
			],
			"mesh" : 1,
			"name" : "node_MeshObject1681138560-PolyPaper23"
		}
	],
	"scene" : 0,
	"scenes" : 
	[
		{
			"extras" : {},
			"name" : "defaultScene",
			"nodes" : 
			[
				3,
				4,
				2,
				1,
				0
			]
		}
	]
}