{
  "accessors": [
    {
      "bufferView": 1,
      "componentType": 5126,
      "count": 65532,
      "max": [
        0.92355000972747803,
        0.88043999671936035,
        0.46590998768806458
      ],
      "min": [
        -0.9189000129699707,
        -0.87705999612808228,
        -1.0145399570465088
      ],
      "type": "VEC3"
    },
    {
      "bufferView": 1,
      "byteOffset": 786384,
      "componentType": 5126,
      "count": 65532,
      "max": [
        0.9355660080909729,
        0.90924012660980225,
        0.53541809320449829
      ],
      "min": [
        -0.88726872205734253,
        -0.99968665838241577,
        -0.9999845027923584
      ],
      "type": "VEC3"
    },
    {
      "bufferView": 0,
      "componentType": 5125,
      "count": 65532,
      "max": [
        65531
      ],
      "min": [
        0
      ],
      "type": "SCALAR"
    },
    {
      "bufferView": 1,
      "byteOffset": 1572768,
      "componentType": 5126,
      "count": 65532,
      "max": [
        0.86403000354766846,
        0.27239000797271729,
        -0.45723000168800354
      ],
      "min": [
        -0.91588997840881348,
        -0.75994998216629028,
        -1.0232299566268921
      ],
      "type": "VEC3"
    },
    {
      "bufferView": 1,
      "byteOffset": 2359152,
      "componentType": 5126,
      "count": 65532,
      "max": [
        0.98781734704971313,
        0.74625974893569946,
        0.044100139290094376
      ],
      "min": [
        -0.97178900241851807,
        -0.94741374254226685,
        -0.99986070394515991
      ],
      "type": "VEC3"
    },
    {
      "bufferView": 0,
      "byteOffset": 262128,
      "componentType": 5125,
      "count": 65532,
      "max": [
        65531
      ],
      "min": [
        0
      ],
      "type": "SCALAR"
    },
    {
      "bufferView": 1,
      "byteOffset": 3145536,
      "componentType": 5126,
      "count": 65534,
      "max": [
        0.014890000224113464,
        0.87747997045516968,
        -0.45056000351905823
      ],
      "min": [
        -0.91487997770309448,
        -0.85631000995635986,
        -1.0126199722290039
      ],
      "type": "VEC3"
    },
    {
      "bufferView": 1,
      "byteOffset": 3931944,
      "componentType": 5126,
      "count": 65534,
      "max": [
        0.85804998874664307,
        0.96617746353149414,
        -0.11421996355056763
      ],
      "min": [
        -0.95497149229049683,
        -0.97997671365737915,
        -0.99995893239974976
      ],
      "type": "VEC3"
    },
    {
      "bufferView": 0,
      "byteOffset": 524256,
      "componentType": 5125,
      "count": 65538,
      "max": [
        65533
      ],
      "min": [
        0
      ],
      "type": "SCALAR"
    },
    {
      "bufferView": 1,
      "byteOffset": 4718352,
      "componentType": 5126,
      "count": 65534,
      "max": [
        1.0625499486923218,
        0.89033001661300659,
        0.45607998967170715
      ],
      "min": [
        -0.91588997840881348,
        -0.53589999675750732,
        -1.0232299566268921
      ],
      "type": "VEC3"
    },
    {
      "bufferView": 1,
      "byteOffset": 5504760,
      "componentType": 5126,
      "count": 65534,
      "max": [
        0.99998784065246582,
        0.9998316764831543,
        0.95392012596130371
      ],
      "min": [
        -0.95531600713729858,
        -0.89025521278381348,
        -0.99999713897705078
      ],
      "type": "VEC3"
    },
    {
      "bufferView": 0,
      "byteOffset": 786408,
      "componentType": 5125,
      "count": 65538,
      "max": [
        65533
      ],
      "min": [
        0
      ],
      "type": "SCALAR"
    },
    {
      "bufferView": 1,
      "byteOffset": 6291168,
      "componentType": 5126,
      "count": 65533,
      "max": [
        1.0541800260543823,
        0.53565001487731934,
        0.45860999822616577
      ],
      "min": [
        -0.27526998519897461,
        -1.0309599637985229,
        -0.54357999563217163
      ],
      "type": "VEC3"
    },
    {
      "bufferView": 1,
      "byteOffset": 7077564,
      "componentType": 5126,
      "count": 65533,
      "max": [
        0.99994903802871704,
        0.8733716607093811,
        0.87599611282348633
      ],
      "min": [
        -0.46083050966262817,
        -0.99998235702514648,
        -0.92385339736938477
      ],
      "type": "VEC3"
    },
    {
      "bufferView": 0,
      "byteOffset": 1048560,
      "componentType": 5125,
      "count": 65535,
      "max": [
        65532
      ],
      "min": [
        0
      ],
      "type": "SCALAR"
    },
    {
      "bufferView": 1,
      "byteOffset": 7863960,
      "componentType": 5126,
      "count": 65532,
      "max": [
        0.7450299859046936,
        -0.0040099998004734516,
        0.45304000377655029
      ],
      "min": [
        -0.98965001106262207,
        -0.9420199990272522,
        -0.53070002794265747
      ],
      "type": "VEC3"
    },
    {
      "bufferView": 1,
      "byteOffset": 8650344,
      "componentType": 5126,
      "count": 65532,
      "max": [
        0.90040254592895508,
        0.48806092143058777,
        0.6281706690788269
      ],
      "min": [
        -0.99969929456710815,
        -0.99988621473312378,
        -0.98827964067459106
      ],
      "type": "VEC3"
    },
    {
      "bufferView": 0,
      "byteOffset": 1310700,
      "componentType": 5125,
      "count": 65532,
      "max": [
        65531
      ],
      "min": [
        0
      ],
      "type": "SCALAR"
    },
    {
      "bufferView": 1,
      "byteOffset": 9436728,
      "componentType": 5126,
      "count": 65532,
      "max": [
        0.74187999963760376,
        1.0343899726867676,
        0.45497000217437744
      ],
      "min": [
        -0.97661000490188599,
        -0.85809999704360962,
        -0.54546999931335449
      ],
      "type": "VEC3"
    },
    {
      "bufferView": 1,
      "byteOffset": 10223112,
      "componentType": 5126,
      "count": 65532,
      "max": [
        0.8245810866355896,
        0.99999690055847168,
        0.84700393676757812
      ],
      "min": [
        -0.99995189905166626,
        -0.86465901136398315,
        -0.98777753114700317
      ],
      "type": "VEC3"
    },
    {
      "bufferView": 0,
      "byteOffset": 1572828,
      "componentType": 5125,
      "count": 65532,
      "max": [
        65531
      ],
      "min": [
        0
      ],
      "type": "SCALAR"
    },
    {
      "bufferView": 1,
      "byteOffset": 11009496,
      "componentType": 5126,
      "count": 65534,
      "max": [
        0.88055998086929321,
        1.0320999622344971,
        0.53661000728607178
      ],
      "min": [
        -0.28268000483512878,
        -0.8935999870300293,
        -0.53755998611450195
      ],
      "type": "VEC3"
    },
    {
      "bufferView": 1,
      "byteOffset": 11795904,
      "componentType": 5126,
      "count": 65534,
      "max": [
        0.99949818849563599,
        0.99994355440139771,
        0.96864616870880127
      ],
      "min": [
        -0.52711141109466553,
        -0.9960828423500061,
        -0.93070733547210693
      ],
      "type": "VEC3"
    },
    {
      "bufferView": 0,
      "byteOffset": 1834956,
      "componentType": 5125,
      "count": 65544,
      "max": [
        65533
      ],
      "min": [
        0
      ],
      "type": "SCALAR"
    },
    {
      "bufferView": 1,
      "byteOffset": 12582312,
      "componentType": 5126,
      "count": 65534,
      "max": [
        0.99910002946853638,
        0.016090000048279762,
        0.53911000490188599
      ],
      "min": [
        -0.73201000690460205,
        -1.0317000150680542,
        -0.45458999276161194
      ],
      "type": "VEC3"
    },
    {
      "bufferView": 1,
      "byteOffset": 13368720,
      "componentType": 5126,
      "count": 65534,
      "max": [
        0.977317214012146,
        -0.024230074137449265,
        0.94834965467453003
      ],
      "min": [
        -0.97030037641525269,
        -0.99999213218688965,
        -0.61072725057601929
      ],
      "type": "VEC3"
    },
    {
      "bufferView": 0,
      "byteOffset": 2097132,
      "componentType": 5125,
      "count": 65538,
      "max": [
        65533
      ],
      "min": [
        0
      ],
      "type": "SCALAR"
    },
    {
      "bufferView": 1,
      "byteOffset": 14155128,
      "componentType": 5126,
      "count": 65533,
      "max": [
        0.28332000970840454,
        1.0337400436401367,
        0.53371000289916992
      ],
      "min": [
        -1.0310699939727783,
        -0.88721001148223877,
        -0.45748001337051392
      ],
      "type": "VEC3"
    },
    {
      "bufferView": 1,
      "byteOffset": 14941524,
      "componentType": 5126,
      "count": 65533,
      "max": [
        0.81701308488845825,
        0.99998939037322998,
        0.86345398426055908
      ],
      "min": [
        -0.99999487400054932,
        -0.97305953502655029,
        -0.86220556497573853
      ],
      "type": "VEC3"
    },
    {
      "bufferView": 0,
      "byteOffset": 2359284,
      "componentType": 5125,
      "count": 65541,
      "max": [
        65532
      ],
      "min": [
        0
      ],
      "type": "SCALAR"
    },
    {
      "bufferView": 1,
      "byteOffset": 15727920,
      "componentType": 5126,
      "count": 65532,
      "max": [
        1.0307199954986572,
        1.0275299549102783,
        0.52900999784469604
      ],
      "min": [
        -0.73360002040863037,
        0.016090000048279762,
        -0.45792001485824585
      ],
      "type": "VEC3"
    },
    {
      "bufferView": 1,
      "byteOffset": 16514304,
      "componentType": 5126,
      "count": 65532,
      "max": [
        0.99981725215911865,
        0.99995309114456177,
        0.99998617172241211
      ],
      "min": [
        -0.96368801593780518,
        -0.38605082035064697,
        -0.92781656980514526
      ],
      "type": "VEC3"
    },
    {
      "bufferView": 0,
      "byteOffset": 2621448,
      "componentType": 5125,
      "count": 65532,
      "max": [
        65531
      ],
      "min": [
        0
      ],
      "type": "SCALAR"
    },
    {
      "bufferView": 1,
      "byteOffset": 17300688,
      "componentType": 5126,
      "count": 65534,
      "max": [
        0.91914999485015869,
        0.89178001880645752,
        1.0267900228500366
      ],
      "min": [
        0.00049000000581145287,
        -0.8721500039100647,
        -0.45528000593185425
      ],
      "type": "VEC3"
    },
    {
      "bufferView": 1,
      "byteOffset": 18087096,
      "componentType": 5126,
      "count": 65534,
      "max": [
        0.99954569339752197,
        0.97805976867675781,
        0.99999940395355225
      ],
      "min": [
        -0.30216962099075317,
        -0.98986661434173584,
        -0.60478174686431885
      ],
      "type": "VEC3"
    },
    {
      "bufferView": 0,
      "byteOffset": 2883576,
      "componentType": 5125,
      "count": 65538,
      "max": [
        65533
      ],
      "min": [
        0
      ],
      "type": "SCALAR"
    },
    {
      "bufferView": 1,
      "byteOffset": 18873504,
      "componentType": 5126,
      "count": 65532,
      "max": [
        0.92305999994277954,
        0.53137999773025513,
        1.0336600542068481
      ],
      "min": [
        -0.73186999559402466,
        -0.89329999685287476,
        0.45498999953269958
      ],
      "type": "VEC3"
    },
    {
      "bufferView": 1,
      "byteOffset": 19659888,
      "componentType": 5126,
      "count": 65532,
      "max": [
        0.81947970390319824,
        0.774089515209198,
        0.99999904632568359
      ],
      "min": [
        -0.93155133724212646,
        -0.99896591901779175,
        -0.2168804258108139
      ],
      "type": "VEC3"
    },
    {
      "bufferView": 0,
      "byteOffset": 3145728,
      "componentType": 5125,
      "count": 65532,
      "max": [
        65531
      ],
      "min": [
        0
      ],
      "type": "SCALAR"
    },
    {
      "bufferView": 1,
      "byteOffset": 20446272,
      "componentType": 5126,
      "count": 65533,
      "max": [
        0.28205001354217529,
        0.86958998441696167,
        1.0334199666976929
      ],
      "min": [
        -0.85940998792648315,
        -0.53134000301361084,
        0.45304000377655029
      ],
      "type": "VEC3"
    },
    {
      "bufferView": 1,
      "byteOffset": 21232668,
      "componentType": 5126,
      "count": 65533,
      "max": [
        0.65224826335906982,
        0.99429929256439209,
        0.99994128942489624
      ],
      "min": [
        -0.99880927801132202,
        -0.9166337251663208,
        -0.12286023050546646
      ],
      "type": "VEC3"
    },
    {
      "bufferView": 0,
      "byteOffset": 3407856,
      "componentType": 5125,
      "count": 65535,
      "max": [
        65532
      ],
      "min": [
        0
      ],
      "type": "SCALAR"
    },
    {
      "bufferView": 1,
      "byteOffset": 22019064,
      "componentType": 5126,
      "count": 65532,
      "max": [
        0.92365998029708862,
        0.88574999570846558,
        1.0300999879837036
      ],
      "min": [
        -0.73250997066497803,
        -0.0067699998617172241,
        0.44483000040054321
      ],
      "type": "VEC3"
    },
    {
      "bufferView": 1,
      "byteOffset": 22805448,
      "componentType": 5126,
      "count": 65532,
      "max": [
        0.99860465526580811,
        0.99972653388977051,
        0.99998116493225098
      ],
      "min": [
        -0.86802983283996582,
        -0.55501872301101685,
        -0.32570862770080566
      ],
      "type": "VEC3"
    },
    {
      "bufferView": 0,
      "byteOffset": 3669996,
      "componentType": 5125,
      "count": 65532,
      "max": [
        65531
      ],
      "min": [
        0
      ],
      "type": "SCALAR"
    },
    {
      "bufferView": 1,
      "byteOffset": 23591832,
      "componentType": 5126,
      "count": 9,
      "max": [
        0.29546999931335449,
        0.87198001146316528,
        0.46261999011039734
      ],
      "min": [
        0.28205001354217529,
        0.86428999900817871,
        0.45497000217437744
      ],
      "type": "VEC3"
    },
    {
      "bufferView": 1,
      "byteOffset": 23591940,
      "componentType": 5126,
      "count": 9,
      "max": [
        0.34477153420448303,
        0.78397047519683838,
        0.58955204486846924
      ],
      "min": [
        0.26064088940620422,
        0.73270320892333984,
        0.53621029853820801
      ],
      "type": "VEC3"
    },
    {
      "bufferView": 0,
      "byteOffset": 3932124,
      "componentType": 5125,
      "count": 9,
      "max": [
        8
      ],
      "min": [
        0
      ],
      "type": "SCALAR"
    }
  ],
  "asset": {
    "extras": {
      "author": "29938490 (https://sketchfab.com/DeonWoodward)",
      "license": "CC-BY-4.0 (http://creativecommons.org/licenses/by/4.0/)",
      "source": "https://sketchfab.com/models/dbd699a1bf2249a596ecc411ab69679f",
      "title": "Moon/ Meteor"
    },
    "generator": "Sketchfab-3.33.1",
    "version": "2.0"
  },
  "bufferViews": [
    {
      "buffer": 0,
      "byteLength": 3932160,
      "byteOffset": 0,
      "name": "floatBufferViews",
      "target": 34963
    },
    {
      "buffer": 0,
      "byteLength": 23592048,
      "byteOffset": 3932160,
      "byteStride": 12,
      "name": "floatBufferViews",
      "target": 34962
    }
  ],
  "buffers": [
    {
      "byteLength": 27524208,
      "uri": "scene.bin"
    }
  ],
  "materials": [
    {
      "doubleSided": true,
      "emissiveFactor": [
        0,
        0,
        0
      ],
      "name": "Root",
      "pbrMetallicRoughness": {
        "baseColorFactor": [
          0.34715108509999998,
          0.34715108509999998,
          0.34715108509999998,
          1
        ],
        "metallicFactor": 0,
        "roughnessFactor": 0.59999999999999998
      }
    }
  ],
  "meshes": [
    {
      "name": "Icosphere_0",
      "primitives": [
        {
          "attributes": {
            "NORMAL": 1,
            "POSITION": 0
          },
          "indices": 2,
          "material": 0,
          "mode": 4
        }
      ]
    },
    {
      "name": "Icosphere_0",
      "primitives": [
        {
          "attributes": {
            "NORMAL": 4,
            "POSITION": 3
          },
          "indices": 5,
          "material": 0,
          "mode": 4
        }
      ]
    },
    {
      "name": "Icosphere_0",
      "primitives": [
        {
          "attributes": {
            "NORMAL": 7,
            "POSITION": 6
          },
          "indices": 8,
          "material": 0,
          "mode": 4
        }
      ]
    },
    {
      "name": "Icosphere_0",
      "primitives": [
        {
          "attributes": {
            "NORMAL": 10,
            "POSITION": 9
          },
          "indices": 11,
          "material": 0,
          "mode": 4
        }
      ]
    },
    {
      "name": "Icosphere_0",
      "primitives": [
        {
          "attributes": {
            "NORMAL": 13,
            "POSITION": 12
          },
          "indices": 14,
          "material": 0,
          "mode": 4
        }
      ]
    },
    {
      "name": "Icosphere_0",
      "primitives": [
        {
          "attributes": {
            "NORMAL": 16,
            "POSITION": 15
          },
          "indices": 17,
          "material": 0,
          "mode": 4
        }
      ]
    },
    {
      "name": "Icosphere_0",
      "primitives": [
        {
          "attributes": {
            "NORMAL": 19,
            "POSITION": 18
          },
          "indices": 20,
          "material": 0,
          "mode": 4
        }
      ]
    },
    {
      "name": "Icosphere_0",
      "primitives": [
        {
          "attributes": {
            "NORMAL": 22,
            "POSITION": 21
          },
          "indices": 23,
          "material": 0,
          "mode": 4
        }
      ]
    },
    {
      "name": "Icosphere_0",
      "primitives": [
        {
          "attributes": {
            "NORMAL": 25,
            "POSITION": 24
          },
          "indices": 26,
          "material": 0,
          "mode": 4
        }
      ]
    },
    {
      "name": "Icosphere_0",
      "primitives": [
        {
          "attributes": {
            "NORMAL": 28,
            "POSITION": 27
          },
          "indices": 29,
          "material": 0,
          "mode": 4
        }
      ]
    },
    {
      "name": "Icosphere_0",
      "primitives": [
        {
          "attributes": {
            "NORMAL": 31,
            "POSITION": 30
          },
          "indices": 32,
          "material": 0,
          "mode": 4
        }
      ]
    },
    {
      "name": "Icosphere_0",
      "primitives": [
        {
          "attributes": {
            "NORMAL": 34,
            "POSITION": 33
          },
          "indices": 35,
          "material": 0,
          "mode": 4
        }
      ]
    },
    {
      "name": "Icosphere_0",
      "primitives": [
        {
          "attributes": {
            "NORMAL": 37,
            "POSITION": 36
          },
          "indices": 38,
          "material": 0,
          "mode": 4
        }
      ]
    },
    {
      "name": "Icosphere_0",
      "primitives": [
        {
          "attributes": {
            "NORMAL": 40,
            "POSITION": 39
          },
          "indices": 41,
          "material": 0,
          "mode": 4
        }
      ]
    },
    {
      "name": "Icosphere_0",
      "primitives": [
        {
          "attributes": {
            "NORMAL": 43,
            "POSITION": 42
          },
          "indices": 44,
          "material": 0,
          "mode": 4
        }
      ]
    },
    {
      "name": "Icosphere_0",
      "primitives": [
        {
          "attributes": {
            "NORMAL": 46,
            "POSITION": 45
          },
          "indices": 47,
          "material": 0,
          "mode": 4
        }
      ]
    }
  ],
  "nodes": [
    {
      "children": [
        1
      ],
      "name": "RootNode (gltf orientation matrix)",
      "rotation": [
        -0.70710678118654746,
        -0,
        -0,
        0.70710678118654757
      ]
    },
    {
      "children": [
        2
      ],
      "name": "RootNode (model correction matrix)"
    },
    {
      "children": [
        3,
        5
      ],
      "name": "Root"
    },
    {
      "children": [
        4
      ],
      "matrix": [
        -0.29086000000000006,
        0.95517000000000007,
        -0.05519000000000001,
        0,
        -0.77110000000000001,
        -0.19988000000000003,
        0.60452000000000006,
        0,
        0.56639000000000006,
        0.21839000000000003,
        0.7946700000000001,
        0,
        4.0762500000000008,
        1.00545,
        5.9038600000000008,
        1
      ],
      "name": "Lamp"
    },
    {
      "name": "Lamp"
    },
    {
      "children": [
        6,
        7,
        8,
        9,
        10,
        11,
        12,
        13,
        14,
        15,
        16,
        17,
        18,
        19,
        20,
        21
      ],
      "name": "Icosphere"
    },
    {
      "mesh": 0,
      "name": "Icosphere_0"
    },
    {
      "mesh": 1,
      "name": "Icosphere_0"
    },
    {
      "mesh": 2,
      "name": "Icosphere_0"
    },
    {
      "mesh": 3,
      "name": "Icosphere_0"
    },
    {
      "mesh": 4,
      "name": "Icosphere_0"
    },
    {
      "mesh": 5,
      "name": "Icosphere_0"
    },
    {
      "mesh": 6,
      "name": "Icosphere_0"
    },
    {
      "mesh": 7,
      "name": "Icosphere_0"
    },
    {
      "mesh": 8,
      "name": "Icosphere_0"
    },
    {
      "mesh": 9,
      "name": "Icosphere_0"
    },
    {
      "mesh": 10,
      "name": "Icosphere_0"
    },
    {
      "mesh": 11,
      "name": "Icosphere_0"
    },
    {
      "mesh": 12,
      "name": "Icosphere_0"
    },
    {
      "mesh": 13,
      "name": "Icosphere_0"
    },
    {
      "mesh": 14,
      "name": "Icosphere_0"
    },
    {
      "mesh": 15,
      "name": "Icosphere_0"
    }
  ],
  "scene": 0,
  "scenes": [
    {
      "name": "OSG_Scene",
      "nodes": [
        0
      ]
    }
  ]
}

