{
	"accessors" : 
	[
		{
			"bufferView" : 2,
			"byteOffset" : 0,
			"componentType" : 5126,
			"count" : 4930,
			"max" : 
			[
				1,
				1,
				1,
				1
			],
			"min" : 
			[
				0,
				0.05284162983298302,
				0.0328759141266346,
				1
			],
			"name" : "accessor_color_m0-PolyPaper16_-103726",
			"type" : "VEC4"
		},
		{
			"bufferView" : 2,
			"byteOffset" : 78880,
			"componentType" : 5126,
			"count" : 90,
			"max" : 
			[
				1,
				1,
				1,
				1
			],
			"min" : 
			[
				1,
				1,
				1,
				1
			],
			"name" : "accessor_color_m1-PolyGem25_-103732",
			"type" : "VEC4"
		},
		{
			"bufferView" : 0,
			"byteOffset" : 0,
			"componentType" : 5123,
			"count" : 7020,
			"max" : 
			[
				4929
			],
			"min" : 
			[
				0
			],
			"name" : "accessor_indices_0_m0-PolyPaper16_-103726",
			"type" : "SCALAR"
		},
		{
			"bufferView" : 0,
			"byteOffset" : 14040,
			"componentType" : 5123,
			"count" : 90,
			"max" : 
			[
				89
			],
			"min" : 
			[
				0
			],
			"name" : "accessor_indices_0_m1-PolyGem25_-103732",
			"type" : "SCALAR"
		},
		{
			"bufferView" : 1,
			"byteOffset" : 59160,
			"componentType" : 5126,
			"count" : 4930,
			"max" : 
			[
				0.999852,
				0.9999312,
				0.9993625
			],
			"min" : 
			[
				-0.9998516,
				-0.9997099,
				-0.9993623
			],
			"name" : "accessor_normal_m0-PolyPaper16_-103726",
			"type" : "VEC3"
		},
		{
			"bufferView" : 1,
			"byteOffset" : 119400,
			"componentType" : 5126,
			"count" : 90,
			"max" : 
			[
				0.9704574,
				0.9800124,
				0.8814416
			],
			"min" : 
			[
				-0.979528,
				-0.7523414,
				-0.8545271
			],
			"name" : "accessor_normal_m1-PolyGem25_-103732",
			"type" : "VEC3"
		},
		{
			"bufferView" : 1,
			"byteOffset" : 0,
			"componentType" : 5126,
			"count" : 4930,
			"max" : 
			[
				2.151738,
				-0.02718065,
				1.4473
			],
			"min" : 
			[
				1.23522,
				-0.5515675,
				0.5342268
			],
			"name" : "accessor_position_m0-PolyPaper16_-103726",
			"type" : "VEC3"
		},
		{
			"bufferView" : 1,
			"byteOffset" : 118320,
			"componentType" : 5126,
			"count" : 90,
			"max" : 
			[
				2.151738,
				-0.1947594,
				1.4473
			],
			"min" : 
			[
				1.23522,
				-0.3999538,
				0.5342268
			],
			"name" : "accessor_position_m1-PolyGem25_-103732",
			"type" : "VEC3"
		}
	],
	"asset" : 
	{
		"copyright" : "Unknown",
		"generator" : "glTF 1-to-2 Upgrader for Google Blocks",
		"version" : "2.0"
	},
	"bufferViews" : 
	[
		{
			"buffer" : 0,
			"byteLength" : 14220,
			"byteOffset" : 0,
			"name" : "ushortBufferView",
			"target" : 34963
		},
		{
			"buffer" : 0,
			"byteLength" : 120480,
			"byteOffset" : 14220,
			"byteStride" : 12,
			"name" : "vec3BufferView",
			"target" : 34962
		},
		{
			"buffer" : 0,
			"byteLength" : 80320,
			"byteOffset" : 134700,
			"byteStride" : 16,
			"name" : "vec4BufferView",
			"target" : 34962
		}
	],
	"buffers" : 
	[
		{
			"byteLength" : 215020,
			"name" : "model",
			"uri" : "model.bin"
		}
	],
	"materials" : 
	[
		{
			"alphaMode" : "OPAQUE",
			"doubleSided" : false,
			"name" : "BlocksPaper",
			"pbrMetallicRoughness" : 
			{
				"baseColorFactor" : 
				[
					1,
					1,
					1,
					1
				],
				"metallicFactor" : 0,
				"roughnessFactor" : 0.6
			}
		},
		{
			"alphaMode" : "BLEND",
			"doubleSided" : false,
			"name" : "BlocksGlass",
			"pbrMetallicRoughness" : 
			{
				"baseColorFactor" : 
				[
					0.2,
					0.2,
					1,
					0.3
				],
				"metallicFactor" : 1,
				"roughnessFactor" : 0.4
			}
		},
		{
			"alphaMode" : "OPAQUE",
			"doubleSided" : true,
			"name" : "BlocksGem",
			"pbrMetallicRoughness" : 
			{
				"baseColorFactor" : 
				[
					1,
					0.4,
					1,
					1
				],
				"metallicFactor" : 0,
				"roughnessFactor" : 0.1
			}
		}
	],
	"meshes" : 
	[
		{
			"name" : "mesh_m0-PolyPaper16_-103726",
			"primitives" : 
			[
				{
					"attributes" : 
					{
						"COLOR_0" : 0,
						"NORMAL" : 4,
						"POSITION" : 6
					},
					"indices" : 2,
					"material" : 0,
					"mode" : 4
				}
			]
		},
		{
			"name" : "mesh_m1-PolyGem25_-103732",
			"primitives" : 
			[
				{
					"attributes" : 
					{
						"COLOR_0" : 1,
						"NORMAL" : 5,
						"POSITION" : 7
					},
					"indices" : 3,
					"material" : 2,
					"mode" : 4
				}
			]
		}
	],
	"nodes" : 
	[
		{
			"matrix" : 
			[
				1,
				0,
				0,
				0,
				0,
				1,
				0,
				0,
				0,
				0,
				1,
				0,
				0,
				0,
				0,
				1
			],
			"mesh" : 1,
			"name" : "node_MeshObject-283392000-PolyGem25"
		},
		{
			"matrix" : 
			[
				1,
				0,
				0,
				0,
				0,
				1,
				0,
				0,
				0,
				0,
				1,
				0,
				0,
				0,
				0,
				1
			],
			"mesh" : 0,
			"name" : "node_MeshObject-855471104-PolyPaper16"
		}
	],
	"scene" : 0,
	"scenes" : 
	[
		{
			"extras" : {},
			"name" : "defaultScene",
			"nodes" : 
			[
				1,
				0
			]
		}
	]
}